<svg version="1.1" viewBox="0.0 0.0 960.0 720.0" fill="none" stroke="none" stroke-linecap="square" stroke-miterlimit="10" xmlns:xlink="http://www.w3.org/1999/xlink" xmlns="http://www.w3.org/2000/svg"><clipPath id="p.0"><path d="m0 0l960.0 0l0 720.0l-960.0 0l0 -720.0z" clip-rule="nonzero"/></clipPath><g clip-path="url(#p.0)"><path fill="#000000" fill-opacity="0.0" d="m0 0l960.0 0l0 720.0l-960.0 0z" fill-rule="evenodd"/><path fill="#999999" d="m252.41995 219.27953l0 0c0 -47.41748 86.105286 -85.85695 192.3215 -85.85695c106.21625 0 192.32153 38.43947 192.32153 85.85695l0 343.4278c0 47.41748 -86.105286 85.856995 -192.32153 85.856995c-106.21622 0 -192.3215 -38.439514 -192.3215 -85.856995z" fill-rule="evenodd"/><path fill="#000000" fill-opacity="0.0" d="m637.063 219.27953l0 0c0 47.417496 -86.105286 85.85695 -192.32153 85.85695c-106.21622 0 -192.3215 -38.439453 -192.3215 -85.85695" fill-rule="evenodd"/><path fill="#000000" fill-opacity="0.0" d="m252.41995 219.27953l0 0c0 -47.41748 86.105286 -85.85695 192.3215 -85.85695c106.21625 0 192.32153 38.43947 192.32153 85.85695l0 343.4278c0 47.41748 -86.105286 85.856995 -192.32153 85.856995c-106.21622 0 -192.3215 -38.439514 -192.3215 -85.856995z" fill-rule="evenodd"/><path stroke="#ffffff" stroke-width="1.0" stroke-linejoin="round" stroke-linecap="butt" d="m637.063 219.27953l0 0c0 47.417496 -86.105286 85.85695 -192.32153 85.85695c-106.21622 0 -192.3215 -38.439453 -192.3215 -85.85695" fill-rule="evenodd"/><path stroke="#ffffff" stroke-width="1.0" stroke-linejoin="round" stroke-linecap="butt" d="m252.41995 219.27953l0 0c0 -47.41748 86.105286 -85.85695 192.3215 -85.85695c106.21625 0 192.32153 38.43947 192.32153 85.85695l0 343.4278c0 47.41748 -86.105286 85.856995 -192.32153 85.856995c-106.21622 0 -192.3215 -38.439514 -192.3215 -85.856995z" fill-rule="evenodd"/></g></svg>