<?xml version="1.0" encoding="UTF-8"?>
<svg width="187px" height="160px" viewBox="0 0 187 160" version="1.1" xmlns="http://www.w3.org/2000/svg" xmlns:xlink="http://www.w3.org/1999/xlink">
    <!-- Generator: Sketch 51.3 (57544) - http://www.bohemiancoding.com/sketch -->
    <title>low-cost</title>
    <desc>Created with Sketch.</desc>
    <defs>
        <linearGradient x1="86.9826434%" y1="0%" x2="13.6852489%" y2="100%" id="linearGradient-1">
            <stop stop-color="#FAAE40" offset="0%"></stop>
            <stop stop-color="#F38020" offset="100%"></stop>
        </linearGradient>
    </defs>
    <g id="low-cost" stroke="none" stroke-width="1" fill="none" fill-rule="evenodd">
        <path d="M32.8544083,119.630484 C30.8209484,120.509993 29.2378899,121.082918 28.1052329,121.349258 C26.2602936,121.783088 24.3195425,122 22.2829212,122 C15.0469257,122 9.52417086,119.601918 5.71449109,114.805681 C1.90481131,110.009444 0,103.080312 0,94.0180762 C0,84.9317385 1.90481131,77.9905555 5.71449109,73.1943189 C9.52417086,68.3980823 15.0469257,66 22.2829212,66 C24.3195425,66 26.2722736,66.216912 28.1411731,66.6507424 C29.8981587,67.0585941 31.5492382,67.6581515 33.0944552,68.4494308 C33.2748501,68.5418079 33.3884478,68.7282024 33.3884478,68.9318226 C33.3884416,68.9697444 33.3884416,69.0032386 33.3884416,69.0323052 L33.3884416,79.8383724 L33.3883777,79.8383724 C33.3883777,79.9916788 33.2648276,80.1159582 33.1124209,80.1159582 C33.0448186,80.1159582 32.9795679,80.0909969 32.9290491,80.0458103 C32.7987785,79.9292896 32.6903641,79.8337113 32.603806,79.7590756 C31.0588093,78.4268852 29.5533059,77.425643 28.0872628,76.755326 C26.3741049,75.972021 24.607063,75.5803744 22.786084,75.5803744 C18.9045234,75.5803744 15.9754268,77.1288849 13.9987062,80.2259522 C12.0219855,83.3230196 11.03364,87.9203483 11.03364,94.0180762 C11.03364,100.091702 12.0219855,104.67698 13.9987062,107.774048 C15.9754268,110.871115 18.9045234,112.419626 22.786084,112.419626 C24.607063,112.419626 26.3741049,112.027979 28.0872628,111.244674 C29.5639367,110.569496 31.0806452,109.558577 32.6374222,108.211892 C32.7480977,108.116152 32.8960775,107.984718 33.0813617,107.817591 L33.0812173,107.817429 C33.1569692,107.7491 33.2734447,107.75548 33.3413726,107.831679 C33.3716802,107.865677 33.3884416,107.909734 33.3884416,107.955399 L33.3884416,118.814794 L33.3884229,118.814794 C33.3884229,119.169595 33.1784419,119.490334 32.8544083,119.630484 Z M60.9905118,75.5803744 C58.2830035,75.5803744 56.3063125,77.0324796 55.0603795,79.9367334 C53.8144465,82.8409872 53.1914894,87.5347212 53.1914894,94.0180762 C53.1914894,100.477329 53.8144465,105.159013 55.0603795,108.063267 C56.3063125,110.96752 58.2830035,112.419626 60.9905118,112.419626 C63.7219803,112.419626 65.7106512,110.96752 66.9565842,108.063267 C68.2025173,105.159013 68.8254744,100.477329 68.8254744,94.0180762 C68.8254744,87.5347212 68.2025173,82.8409872 66.9565842,79.9367334 C65.7106512,77.0324796 63.7219803,75.5803744 60.9905118,75.5803744 Z M42.1578493,94.0180762 C42.1578493,84.7871284 43.7451921,77.8097934 46.9199252,73.0858618 C50.0946584,68.3619303 54.784807,66 60.9905118,66 C67.2201768,66 71.9223054,68.3619303 75.0970385,73.0858618 C78.2717717,77.8097934 79.8591144,84.7871284 79.8591144,94.0180762 C79.8591144,103.224922 78.2717717,110.190207 75.0970385,114.914138 C71.9223054,119.63807 67.2201768,122 60.9905118,122 C54.784807,122 50.0946584,119.63807 46.9199252,114.914138 C43.7451921,110.190207 42.1578493,103.224922 42.1578493,94.0180762 Z M171.058597,121 L161.996377,121 C161.488237,121 161,120.51114 161,120 L161,76 L148.675043,76 C148.166903,76 148,75.5111397 148,75 L148,68 C148,67.4888603 148.49186,67 149,67 L184,67 C184.50814,67 185,67.4888603 185,68 L185,75 C185,75.5111397 184.50814,76 184,76 L172,76 L172,120 C172,120.51114 171.566737,121 171.058597,121 Z" id="COST" fill="#D7DADF"></path>
        <path d="M120.271552,100.493736 L120.271552,115.621273 C122.353459,115.320725 123.972695,114.510925 125.12931,113.191851 C126.285925,111.872776 126.864224,110.194738 126.864224,108.157687 C126.864224,106.087241 126.294187,104.392506 125.154095,103.073432 C124.014003,101.754357 122.386505,100.894467 120.271552,100.493736 Z M113.282328,86.0173841 L113.282328,71.8415793 C111.233467,72.1087337 109.688583,72.8016548 108.647629,73.9203634 C107.606676,75.0390721 107.086207,76.5668379 107.086207,78.5037067 C107.086207,80.4071811 107.606676,81.993386 108.647629,83.262369 C109.688583,84.531352 111.233467,85.4496812 113.282328,86.0173841 Z M120.271552,142.019326 L129.531222,142.019326 C129.917821,142.019326 130.231222,142.332727 130.231222,142.719326 C130.231222,142.888576 130.169901,143.052095 130.058611,143.17961 L117.310223,157.786616 C117.056016,158.077885 116.61382,158.107929 116.322551,157.853721 C116.299078,157.833235 116.276999,157.811205 116.256461,157.787777 L103.451233,143.180771 C103.196384,142.890064 103.225453,142.447802 103.516161,142.192953 C103.64383,142.081032 103.807824,142.019326 103.977606,142.019326 L113.282328,142.019326 L113.232759,126.94188 C110.357744,126.841698 107.35059,126.407578 104.211207,125.63951 C101.071823,124.871441 97.8003044,123.769446 94.3965517,122.333492 L94.3965517,109.209602 C97.8003044,111.246653 101.096608,112.816161 104.28556,113.918173 C107.474513,115.020184 110.473405,115.587879 113.282328,115.621273 L113.282328,99.141274 C106.772238,97.8388967 101.93105,95.5931645 98.7586207,92.4040099 C95.586191,89.2148553 94,84.9988896 94,79.7559862 C94,74.17914 95.685328,69.7377662 99.0560345,66.4317316 C102.426741,63.125697 107.168791,61.2723418 113.282328,60.8716103 L113.282328,40 C113.282328,39.4477153 113.730043,39 114.282328,39 L119.273816,39 C119.825215,39 120.272563,39.4463352 120.273813,39.9977336 L120.321121,60.8716103 C122.667397,61.0051875 125.104513,61.3057316 127.632543,61.7732516 C130.160573,62.2407717 132.746395,62.8919505 135.390086,63.7268077 L135.390086,76.5501505 C133.341225,75.214379 131.061076,74.1457778 128.549569,73.3443148 C126.038062,72.5428519 123.278751,72.0419451 120.271552,71.8415793 L120.271552,87.2195725 C126.781642,88.2547954 131.697182,90.5005277 135.018319,93.9568365 C138.339456,97.4131454 140,102.01314 140,107.756957 C140,113.233621 138.207274,117.725085 134.621767,121.231486 C131.036261,124.737886 126.269426,126.641332 120.321121,126.94188 L120.271552,142.019326 Z" id="$" fill="url(#linearGradient-1)"></path>
    </g>
</svg>