<?xml version="1.0" encoding="UTF-8"?>
<svg width="156px" height="160px" viewBox="0 0 156 160" version="1.1" xmlns="http://www.w3.org/2000/svg" xmlns:xlink="http://www.w3.org/1999/xlink">
    <!-- Generator: Sketch 51.3 (57544) - http://www.bohemiancoding.com/sketch -->
    <title>scaling</title>
    <desc>Created with Sketch.</desc>
    <defs>
        <linearGradient x1="86.9826434%" y1="0%" x2="13.6852489%" y2="100%" id="linearGradient-1">
            <stop stop-color="#FAAE40" offset="0%"></stop>
            <stop stop-color="#F38020" offset="100%"></stop>
        </linearGradient>
    </defs>
    <g id="scaling" stroke="none" stroke-width="1" fill="none" fill-rule="evenodd">
        <path d="M80.0136174,21.4098336 L136.513617,54.4267796 C137.434139,54.9647054 138,55.9507736 138,57.0169461 L138,123.113927 C138,124.180099 137.434139,125.166167 136.513617,125.704093 L80.0136174,158.721039 C79.078518,159.267484 77.921482,159.267484 76.9863826,158.721039 L20.4863826,125.704093 C19.5658611,125.166167 19,124.180099 19,123.113927 L19,57.0169461 C19,55.9507736 19.5658611,54.9647054 20.4863826,54.4267796 L76.9863826,21.4098336 C77.921482,20.8633888 79.078518,20.8633888 80.0136174,21.4098336 Z" id="shape" fill="url(#linearGradient-1)" opacity="0.13"></path>
        <path d="M79.5084014,48.8335207 L113.508401,68.6104373 C114.431867,69.1475933 115,70.1353164 115,71.2036448 L115,110.796355 C115,111.864684 114.431867,112.852407 113.508401,113.389563 L79.5084014,133.166479 C78.5759376,133.708869 77.4240624,133.708869 76.4915986,133.166479 L42.4915986,113.389563 C41.5681328,112.852407 41,111.864684 41,110.796355 L41,71.2036448 C41,70.1353164 41.5681328,69.1475933 42.4915986,68.6104373 L76.4915986,48.8335207 C77.4240624,48.2911307 78.5759376,48.2911307 79.5084014,48.8335207 Z" id="shape" fill="url(#linearGradient-1)" opacity="0.47"></path>
        <path d="M80.0072521,69.3758357 L95.5072521,78.3825924 C96.4313663,78.9195777 97,79.907665 97,80.9764681 L97,99.0235319 C97,100.092335 96.4313663,101.080422 95.5072521,101.617408 L80.0072521,110.624164 C79.07537,111.165663 77.92463,111.165663 76.9927479,110.624164 L61.4927479,101.617408 C60.5686337,101.080422 60,100.092335 60,99.0235319 L60,80.9764681 C60,79.907665 60.5686337,78.9195777 61.4927479,78.3825924 L76.9927479,69.3758357 C77.92463,68.8343366 79.07537,68.8343366 80.0072521,69.3758357 Z" id="shape" fill="url(#linearGradient-1)"></path>
        <path id="arrow" d="M154.776086,45.9362837 C154.872839,45.7836756 154.917485,45.6038032 154.903323,45.423665 C154.867173,44.9638623 154.465124,44.6204238 154.005322,44.6565735 L140.262832,45.7370088 C140.133583,45.7471703 140.008475,45.7872848 139.897416,45.8541753 C139.502322,46.0921386 139.374943,46.6053324 139.612907,47.0004257 L145.974251,57.5622436 C146.041141,57.6733028 146.132971,57.767263 146.242467,57.836683 C146.631999,58.0836448 147.147979,57.9680689 147.394941,57.578537 L154.776086,45.9362837 Z M96.7929013,81.1548545 L144.189854,52.6078438 C144.662954,52.3228972 144.815483,51.7083788 144.530536,51.2352785 C144.245589,50.7621782 143.631071,50.6096494 143.157971,50.894596 L95.7610185,79.4416067 C95.2879182,79.7265533 95.1353894,80.3410717 95.420336,80.814172 C95.7052826,81.2872723 96.319801,81.4398011 96.7929013,81.1548545 Z" fill="#F7A648" fill-rule="nonzero"></path>
        <path id="arrow" d="M79.2468584,0.767378908 C79.1660496,0.605761203 79.0350012,0.47471282 78.8733835,0.393903967 C78.4608544,0.187639453 77.9592232,0.354849879 77.7529586,0.767378908 L71.5881655,13.0969653 C71.5301853,13.2129256 71.5,13.3407926 71.5,13.4704402 C71.5,13.9316617 71.8738939,14.3055556 72.3351154,14.3055556 L84.6647017,14.3055556 C84.7943493,14.3055556 84.9222163,14.2753702 85.0381766,14.2173901 C85.4507057,14.0111256 85.6179161,13.5094943 85.4116516,13.0969653 L79.2468584,0.767378908 Z M79.5,69.9166667 L79.5,13.3055556 C79.5,12.7532708 79.0522847,12.3055556 78.5,12.3055556 C77.9477153,12.3055556 77.5,12.7532708 77.5,13.3055556 L77.5,69.9166667 C77.5,70.4689514 77.9477153,70.9166667 78.5,70.9166667 C79.0522847,70.9166667 79.5,70.4689514 79.5,69.9166667 Z" fill="#F6A547" fill-rule="nonzero"></path>
        <path id="arrow" d="M2.68278553,45.279135 C2.50248017,45.2672889 2.32319636,45.3142428 2.17184437,45.4129491 C1.78551857,45.6648967 1.67658358,46.1823196 1.92853125,46.5686454 L9.45869358,58.1150747 C9.52951509,58.2236694 9.62464765,58.3142836 9.73655735,58.3797413 C10.1346764,58.6126072 10.6461907,58.4786431 10.8790565,58.0805241 L17.104135,47.4378225 C17.1695927,47.3259128 17.208096,47.2002997 17.2165956,47.0709311 C17.2468329,46.6107018 16.8982556,46.2131001 16.4380264,46.1828627 L2.68278553,45.279135 Z M60.9264581,79.0534827 L13.6256671,51.3865285 C13.1489438,51.1076857 12.5364364,51.2680996 12.2575937,51.744823 C11.9787509,52.2215464 12.1391648,52.8340537 12.6158882,53.1128965 L59.9166791,80.7798507 C60.3934025,81.0586934 61.0059099,80.8982795 61.2847526,80.4215562 C61.5635954,79.9448328 61.4031815,79.3323254 60.9264581,79.0534827 Z" fill="#F4953D" fill-rule="nonzero"></path>
    </g>
</svg>