<?xml version="1.0" encoding="UTF-8"?>
<svg width="179px" height="160px" viewBox="0 0 179 160" version="1.1" xmlns="http://www.w3.org/2000/svg" xmlns:xlink="http://www.w3.org/1999/xlink">
    <!-- Generator: Sketch 51.3 (57544) - http://www.bohemiancoding.com/sketch -->
    <title>serverless</title>
    <desc>Created with Sketch.</desc>
    <defs>
        <linearGradient x1="86.9826434%" y1="0%" x2="13.6852489%" y2="100%" id="linearGradient-1">
            <stop stop-color="#FAAE40" offset="0%"></stop>
            <stop stop-color="#F38020" offset="100%"></stop>
        </linearGradient>
        <linearGradient x1="132.107822%" y1="0%" x2="13.6852489%" y2="100%" id="linearGradient-2">
            <stop stop-color="#FAAE40" offset="0%"></stop>
            <stop stop-color="#F38020" offset="100%"></stop>
        </linearGradient>
    </defs>
    <g id="serverless" stroke="none" stroke-width="1" fill="none" fill-rule="evenodd">
        <path d="M33.0264151,97 C23.4490566,97 16,89.0821114 16,79.3167155 C16,70.8709677 21.5867925,63.4809384 29.0358491,62.1612903 C29.0358491,60.5777126 28.7698113,59.2580645 28.7698113,57.1466276 C28.7698113,42.8944282 39.9433962,31.5454545 53.245283,31.5454545 C55.3735849,31.5454545 57.7679245,32.0733138 60.1622642,32.601173 C66.2811321,17.2932551 80.3811321,7 96.8754717,7 C117.626415,7 134.918868,24.1554252 135.983019,45.797654 C147.954717,47.3812317 157,58.202346 157,71.398827 C157,84.3313783 145.826415,97 135.983019,97 L33.0264151,97 Z" id="Shape" fill="url(#linearGradient-1)" opacity="0.214285714"></path>
        <path d="M80,107 L80,85.1382081 C80,84.5306949 79.5075132,84 78.9,84 L65,84 C64.4477153,84 63.9945967,83.5904928 63.9945967,83.0382081 C63.9945967,82.7772714 64.0965897,82.5266699 64.2788056,82.3398937 L87.5948061,58.4403609 C88.3661428,57.6497198 89.6323761,57.6340705 90.4230172,58.4054073 C90.424962,58.4073046 98.4989633,66.3810686 114.645021,82.3266992 C115.037977,82.7147771 115.041931,83.3479297 114.653853,83.7408852 C114.46597,83.9311293 114.209725,84 113.942344,84 L99.1,84 C98.4924868,84 98,84.5306949 98,85.1382081 L98,107 C98,107.552285 97.5522847,108 97,108 L81,108 C80.4477153,108 80,107.552285 80,107 Z" id="Path-2" fill="url(#linearGradient-2)"></path>
    </g>
</svg>
