<?xml version="1.0" encoding="UTF-8"?>
<svg width="176px" height="160px" viewBox="0 0 176 160" version="1.1" xmlns="http://www.w3.org/2000/svg" xmlns:xlink="http://www.w3.org/1999/xlink">
    <!-- Generator: Sketch 51.3 (57544) - http://www.bohemiancoding.com/sketch -->
    <title>short-cold-starts</title>
    <desc>Created with Sketch.</desc>
    <defs>
        <linearGradient x1="124.404452%" y1="0%" x2="-6.68164363%" y2="131.310125%" id="linearGradient-1">
            <stop stop-color="#FAAE40" offset="0%"></stop>
            <stop stop-color="#F38020" offset="100%"></stop>
        </linearGradient>
    </defs>
    <g id="short-cold-starts" stroke="none" stroke-width="1" fill="none" fill-rule="evenodd">
        <path d="M34.5716838,17.647774 L38.8109702,24.3307031 C39.0637176,24.7291412 39.0629608,25.2190878 38.8089835,25.6168858 L34.5205004,32.3338249 C34.2665231,32.7316229 33.797686,32.9771889 33.2897334,32.9784721 L5.66903586,32.9999949 C5.1568135,33.0012889 4.68318812,32.7540132 4.42831617,32.352226 L0.18902981,25.6692969 C-0.063717588,25.2708588 -0.0629607996,24.7809122 0.191016492,24.3831142 L4.47949963,17.6661751 C4.73347692,17.2683771 5.20231404,17.0228111 5.71026664,17.0215279 L33.3309641,17.0000051 C33.8431865,16.9987111 34.3168119,17.2459868 34.5716838,17.647774 Z" id="shape" fill="url(#linearGradient-1)"></path>
        <path d="M139.587746,113.647774 L143.811656,120.330703 C144.063486,120.729141 144.062732,121.219088 143.809676,121.616886 L139.536748,128.333825 C139.283692,128.731623 138.816555,128.977189 138.310445,128.978472 L5.64847373,128.999995 C5.13810925,129.001289 4.66620175,128.754013 4.41225425,128.352226 L0.188344182,121.669297 C-0.0634864783,121.270859 -0.0627324349,120.780912 0.190323658,120.383114 L4.46325207,113.666175 C4.71630816,113.268377 5.18344476,113.022811 5.68955497,113.021528 L138.351526,113.000005 C138.861891,112.998711 139.333798,113.245987 139.587746,113.647774 Z" id="shape" fill="#D7DADF"></path>
        <path d="M116.586658,89.647774 L120.811609,96.3307031 C121.063502,96.7291412 121.062748,97.2190878 120.809629,97.6168858 L116.535647,104.333825 C116.282529,104.731623 115.815277,104.977189 115.309042,104.978472 L5.64986669,104.999995 C5.13937635,105.001289 4.66735248,104.754013 4.41334235,104.352226 L0.188390629,97.6692969 C-0.0635021346,97.2708588 -0.0627479052,96.7809122 0.190370593,96.3831142 L4.46435274,89.6661751 C4.71747124,89.2683771 5.18472304,89.0228111 5.69095806,89.0215279 L115.350133,89.0000051 C115.860624,88.9987111 116.332648,89.2459868 116.586658,89.647774 Z" id="shape" fill="#D7DADF"></path>
        <path d="M85.5851902,65.647774 L89.8115467,72.3307031 C90.0635232,72.7291412 90.0627688,73.2190878 89.8095661,73.6168858 L85.5341629,80.3338249 C85.2809602,80.7316229 84.8135531,80.9771889 84.3071497,80.9784721 L5.65174525,80.9999949 C5.14108517,81.0012889 4.66890435,80.7540132 4.41480977,80.352226 L0.188453268,73.6692969 C-0.0635232488,73.2708588 -0.0627687686,72.7809122 0.19043389,72.3831142 L4.46583712,65.6661751 C4.71903978,65.2683771 5.18644694,65.0228111 5.69285028,65.0215279 L84.3482547,65.0000051 C84.8589148,64.9987111 85.3310956,65.2459868 85.5851902,65.647774 Z" id="shape" fill="#D7DADF"></path>
        <path d="M68.5831033,41.647774 L72.8114576,48.3307031 C73.0635533,48.7291412 73.0627984,49.2190878 72.8094761,49.6168858 L68.5320518,56.3338249 C68.2787294,56.7316229 67.8111013,56.9771889 67.3044586,56.9784721 L5.65441693,56.9999949 C5.14351545,57.0012889 4.67111142,56.7540132 4.41689672,56.352226 L0.188542353,49.6692969 C-0.0635532773,49.2708588 -0.0627984405,48.7809122 0.190523912,48.3831142 L4.4679482,41.6661751 C4.72127055,41.2683771 5.18889866,41.0228111 5.69554139,41.0215279 L67.3455831,41.0000051 C67.8564845,40.9987111 68.3288886,41.2459868 68.5831033,41.647774 Z" id="shape" fill="#D7DADF"></path>
        <path d="M171.588585,137.647774 L175.811692,144.330703 C176.063474,144.729141 176.062721,145.219088 175.809713,145.616886 L171.537597,152.333825 C171.284589,152.731623 170.817541,152.977189 170.311527,152.978472 L5.64739963,152.999995 C5.1371322,153.001289 4.66531444,152.754013 4.41141523,152.352226 L0.188308367,145.669297 C-0.0634744059,145.270859 -0.0627205058,144.780912 0.190287466,144.383114 L4.46240335,137.666175 C4.71541132,137.268377 5.18245909,137.022811 5.68847306,137.021528 L170.3526,137.000005 C170.862868,136.998711 171.334686,137.245987 171.588585,137.647774 Z" id="shape" fill="#D7DADF"></path>
        <text id="4ms" font-family="Menlo-Bold, Menlo" font-size="14" font-weight="bold" fill="#232324">
            <tspan x="43.3569336" y="30">4ms</tspan>
        </text>
    </g>
</svg>