<?xml version="1.0" encoding="UTF-8"?>
<svg width="237px" height="160px" viewBox="0 0 237 160" version="1.1" xmlns="http://www.w3.org/2000/svg" xmlns:xlink="http://www.w3.org/1999/xlink">
    <!-- Generator: Sketch 51.3 (57544) - http://www.bohemiancoding.com/sketch -->
    <title>templates</title>
    <desc>Created with Sketch.</desc>
    <defs>
        <path d="M11.25,1.9720113e-15 L56.4541551,0 C58.3996398,-5.54119246e-15 60.2690002,0.755975415 61.6675886,2.10832946 L77.7134335,17.6237332 C79.1748175,19.036807 80,20.9825682 80,23.0154038 L80,108.75 C80,114.963203 74.9632034,120 68.75,120 L11.25,120 C5.03679656,120 8.2852038e-14,114.963203 7.10542736e-14,108.75 L7.10542736e-14,11.25 C7.02933756e-14,5.03679656 5.03679656,2.25156998e-15 11.25,1.9720113e-15 Z" id="path-1"></path>
        <filter x="-10.3%" y="-4.4%" width="120.6%" height="113.8%" filterUnits="objectBoundingBox" id="filter-2">
            <feOffset dx="0" dy="3" in="SourceAlpha" result="shadowOffsetOuter1"></feOffset>
            <feGaussianBlur stdDeviation="2.25" in="shadowOffsetOuter1" result="shadowBlurOuter1"></feGaussianBlur>
            <feColorMatrix values="0 0 0 0 0.0410073586   0 0 0 0 0.0410073586   0 0 0 0 0.0712159864  0 0 0 0.267521513 0" type="matrix" in="shadowBlurOuter1"></feColorMatrix>
        </filter>
        <path d="M11.25,1.9720113e-15 L56.4541551,0 C58.3996398,-5.54119246e-15 60.2690002,0.755975415 61.6675886,2.10832946 L77.7134335,17.6237332 C79.1748175,19.036807 80,20.9825682 80,23.0154038 L80,108.75 C80,114.963203 74.9632034,120 68.75,120 L11.25,120 C5.03679656,120 8.2852038e-14,114.963203 7.10542736e-14,108.75 L7.10542736e-14,11.25 C7.02933756e-14,5.03679656 5.03679656,2.25156998e-15 11.25,1.9720113e-15 Z" id="path-3"></path>
        <filter x="-10.3%" y="-4.4%" width="120.6%" height="113.8%" filterUnits="objectBoundingBox" id="filter-4">
            <feOffset dx="0" dy="3" in="SourceAlpha" result="shadowOffsetOuter1"></feOffset>
            <feGaussianBlur stdDeviation="2.25" in="shadowOffsetOuter1" result="shadowBlurOuter1"></feGaussianBlur>
            <feColorMatrix values="0 0 0 0 0.0410073586   0 0 0 0 0.0410073586   0 0 0 0 0.0712159864  0 0 0 0.267521513 0" type="matrix" in="shadowBlurOuter1"></feColorMatrix>
        </filter>
        <path d="M11.25,1.9720113e-15 L56.4541551,0 C58.3996398,-5.54119246e-15 60.2690002,0.755975415 61.6675886,2.10832946 L77.7134335,17.6237332 C79.1748175,19.036807 80,20.9825682 80,23.0154038 L80,108.75 C80,114.963203 74.9632034,120 68.75,120 L11.25,120 C5.03679656,120 8.2852038e-14,114.963203 7.10542736e-14,108.75 L7.10542736e-14,11.25 C7.02933756e-14,5.03679656 5.03679656,2.25156998e-15 11.25,1.9720113e-15 Z" id="path-5"></path>
        <filter x="-10.3%" y="-4.4%" width="120.6%" height="113.8%" filterUnits="objectBoundingBox" id="filter-6">
            <feOffset dx="0" dy="3" in="SourceAlpha" result="shadowOffsetOuter1"></feOffset>
            <feGaussianBlur stdDeviation="2.25" in="shadowOffsetOuter1" result="shadowBlurOuter1"></feGaussianBlur>
            <feColorMatrix values="0 0 0 0 0.0410073586   0 0 0 0 0.0410073586   0 0 0 0 0.0712159864  0 0 0 0.267521513 0" type="matrix" in="shadowBlurOuter1"></feColorMatrix>
        </filter>
        <path d="M11.25,1.9720113e-15 L56.4541551,0 C58.3996398,-5.54119246e-15 60.2690002,0.755975415 61.6675886,2.10832946 L77.7134335,17.6237332 C79.1748175,19.036807 80,20.9825682 80,23.0154038 L80,108.75 C80,114.963203 74.9632034,120 68.75,120 L11.25,120 C5.03679656,120 8.2852038e-14,114.963203 7.10542736e-14,108.75 L7.10542736e-14,11.25 C7.02933756e-14,5.03679656 5.03679656,2.25156998e-15 11.25,1.9720113e-15 Z" id="path-7"></path>
        <filter x="-10.3%" y="-4.4%" width="120.6%" height="113.8%" filterUnits="objectBoundingBox" id="filter-8">
            <feOffset dx="0" dy="3" in="SourceAlpha" result="shadowOffsetOuter1"></feOffset>
            <feGaussianBlur stdDeviation="2.25" in="shadowOffsetOuter1" result="shadowBlurOuter1"></feGaussianBlur>
            <feColorMatrix values="0 0 0 0 0.0410073586   0 0 0 0 0.0410073586   0 0 0 0 0.0712159864  0 0 0 0.267521513 0" type="matrix" in="shadowBlurOuter1"></feColorMatrix>
        </filter>
        <path d="M11.25,1.9720113e-15 L56.4541551,0 C58.3996398,-5.54119246e-15 60.2690002,0.755975415 61.6675886,2.10832946 L77.7134335,17.6237332 C79.1748175,19.036807 80,20.9825682 80,23.0154038 L80,108.75 C80,114.963203 74.9632034,120 68.75,120 L11.25,120 C5.03679656,120 8.2852038e-14,114.963203 7.10542736e-14,108.75 L7.10542736e-14,11.25 C7.02933756e-14,5.03679656 5.03679656,2.25156998e-15 11.25,1.9720113e-15 Z" id="path-9"></path>
        <filter x="-10.3%" y="-4.4%" width="120.6%" height="113.8%" filterUnits="objectBoundingBox" id="filter-10">
            <feOffset dx="0" dy="3" in="SourceAlpha" result="shadowOffsetOuter1"></feOffset>
            <feGaussianBlur stdDeviation="2.25" in="shadowOffsetOuter1" result="shadowBlurOuter1"></feGaussianBlur>
            <feColorMatrix values="0 0 0 0 0.0410073586   0 0 0 0 0.0410073586   0 0 0 0 0.0712159864  0 0 0 0.267521513 0" type="matrix" in="shadowBlurOuter1"></feColorMatrix>
        </filter>
        <path d="M11.25,1.9720113e-15 L56.4541551,0 C58.3996398,-5.54119246e-15 60.2690002,0.755975415 61.6675886,2.10832946 L77.7134335,17.6237332 C79.1748175,19.036807 80,20.9825682 80,23.0154038 L80,108.75 C80,114.963203 74.9632034,120 68.75,120 L11.25,120 C5.03679656,120 8.2852038e-14,114.963203 7.10542736e-14,108.75 L7.10542736e-14,11.25 C7.02933756e-14,5.03679656 5.03679656,2.25156998e-15 11.25,1.9720113e-15 Z" id="path-11"></path>
        <filter x="-10.3%" y="-4.4%" width="120.6%" height="113.8%" filterUnits="objectBoundingBox" id="filter-12">
            <feOffset dx="0" dy="3" in="SourceAlpha" result="shadowOffsetOuter1"></feOffset>
            <feGaussianBlur stdDeviation="2.25" in="shadowOffsetOuter1" result="shadowBlurOuter1"></feGaussianBlur>
            <feColorMatrix values="0 0 0 0 0.0410073586   0 0 0 0 0.0410073586   0 0 0 0 0.0712159864  0 0 0 0.267521513 0" type="matrix" in="shadowBlurOuter1"></feColorMatrix>
        </filter>
    </defs>
    <g id="templates" stroke="none" stroke-width="1" fill="none" fill-rule="evenodd">
        <g id="file" opacity="0.33" transform="translate(130.000000, 30.000000)">
            <g id="paper">
                <use fill="black" fill-opacity="1" filter="url(#filter-2)" xlink:href="#path-1"></use>
                <use fill="#F4F4F7" fill-rule="evenodd" xlink:href="#path-1"></use>
            </g>
            <path d="M56.4102564,-4.64163767e-14 L57.06076,-4.61852778e-14 C58.6171478,-4.50888316e-14 60.1126361,0.604780332 61.2315068,1.68666357 L78.1707468,18.0659287 C79.339854,19.1963877 80,20.7529967 80,22.3792652 L80,22.8099174 L64.4102564,22.8099174 C59.9919784,22.8099174 56.4102564,19.2281954 56.4102564,14.8099174 L56.4102564,-4.61852778e-14 Z" id="paper-folded-down" fill="#D7DADF" fill-rule="evenodd"></path>
        </g>
        <g id="file" opacity="0.66" transform="translate(142.000000, 18.000000)">
            <g id="paper">
                <use fill="black" fill-opacity="1" filter="url(#filter-4)" xlink:href="#path-3"></use>
                <use fill="#F4F4F7" fill-rule="evenodd" xlink:href="#path-3"></use>
            </g>
            <path d="M56.4102564,-4.64163767e-14 L57.06076,-4.61852778e-14 C58.6171478,-4.50888316e-14 60.1126361,0.604780332 61.2315068,1.68666357 L78.1707468,18.0659287 C79.339854,19.1963877 80,20.7529967 80,22.3792652 L80,22.8099174 L64.4102564,22.8099174 C59.9919784,22.8099174 56.4102564,19.2281954 56.4102564,14.8099174 L56.4102564,-4.61852778e-14 Z" id="paper-folded-down" fill="#D7DADF" fill-rule="evenodd"></path>
        </g>
        <g id="file" transform="translate(154.000000, 6.000000)">
            <g id="paper">
                <use fill="black" fill-opacity="1" filter="url(#filter-6)" xlink:href="#path-5"></use>
                <use fill="#F4F4F7" fill-rule="evenodd" xlink:href="#path-5"></use>
            </g>
            <path d="M56.4102564,-4.64163767e-14 L57.06076,-4.61852778e-14 C58.6171478,-4.50888316e-14 60.1126361,0.604780332 61.2315068,1.68666357 L78.1707468,18.0659287 C79.339854,19.1963877 80,20.7529967 80,22.3792652 L80,22.8099174 L64.4102564,22.8099174 C59.9919784,22.8099174 56.4102564,19.2281954 56.4102564,14.8099174 L56.4102564,-4.61852778e-14 Z" id="paper-folded-down" fill="#D7DADF" fill-rule="evenodd"></path>
        </g>
        <rect id="rs-stripe" fill="#F79932" x="164" y="69" width="60" height="10"></rect>
        <path d="M177.655718,69.4 C176.050284,69.4 175,68.3246101 175,66.8367418 C175,65.3488735 176.050284,64.2882149 177.655718,64.2882149 C179.276156,64.2882149 180.311436,65.3488735 180.311436,66.8367418 C180.311436,68.3246101 179.276156,69.4 177.655718,69.4 Z M185.187753,69.002253 L185.187753,52.7535529 L189.418897,52.7535529 L189.418897,55.3462738 L189.68897,55.3462738 C190.124088,53.7258232 191.83455,52.4883882 193.935118,52.4883882 C194.53528,52.4883882 195.270479,52.5620451 195.64558,52.6946274 L195.64558,56.5984402 C195.300487,56.4658579 194.280211,56.3332756 193.57502,56.3332756 C191.189376,56.3332756 189.553933,57.7180243 189.553933,60.0013865 L189.553933,69.002253 L185.187753,69.002253 Z M197.806164,57.5265165 C197.806164,54.4476603 200.56691,52.4 204.693025,52.4 C208.894161,52.4 211.36983,54.1235702 211.609895,57.2318891 L207.573804,57.2318891 C207.348743,56.1859619 206.343471,55.5377816 204.723033,55.5377816 C203.162612,55.5377816 202.007299,56.230156 202.007299,57.2613518 C202.007299,58.0568458 202.71249,58.5429809 204.242903,58.8818024 L207.348743,59.544714 C210.559611,60.2370884 212,61.5629116 212,63.9935875 C212,67.2344887 209.044201,69.3558059 204.708029,69.3558059 C200.341849,69.3558059 197.701135,67.602773 197.401054,64.4797227 L201.662206,64.4797227 C201.992295,65.5845754 203.057583,66.2180243 204.798054,66.2180243 C206.493512,66.2180243 207.663828,65.5256499 207.663828,64.4797227 C207.663828,63.6842288 207.033658,63.1980936 205.578264,62.8887348 L202.577453,62.2258232 C199.366586,61.5334489 197.806164,60.0308492 197.806164,57.5265165 Z" id="rs-text" fill="#232324"></path>
        <g id="file" opacity="0.33" transform="translate(6.000000, 30.000000)">
            <g id="paper">
                <use fill="black" fill-opacity="1" filter="url(#filter-8)" xlink:href="#path-7"></use>
                <use fill="#F4F4F7" fill-rule="evenodd" xlink:href="#path-7"></use>
            </g>
            <path d="M56.4102564,-4.64163767e-14 L57.06076,-4.61852778e-14 C58.6171478,-4.50888316e-14 60.1126361,0.604780332 61.2315068,1.68666357 L78.1707468,18.0659287 C79.339854,19.1963877 80,20.7529967 80,22.3792652 L80,22.8099174 L64.4102564,22.8099174 C59.9919784,22.8099174 56.4102564,19.2281954 56.4102564,14.8099174 L56.4102564,-4.61852778e-14 Z" id="paper-folded-down" fill="#D7DADF" fill-rule="evenodd"></path>
        </g>
        <g id="file" opacity="0.66" transform="translate(18.000000, 18.000000)">
            <g id="paper">
                <use fill="black" fill-opacity="1" filter="url(#filter-10)" xlink:href="#path-9"></use>
                <use fill="#F4F4F7" fill-rule="evenodd" xlink:href="#path-9"></use>
            </g>
            <path d="M56.4102564,-4.64163767e-14 L57.06076,-4.61852778e-14 C58.6171478,-4.50888316e-14 60.1126361,0.604780332 61.2315068,1.68666357 L78.1707468,18.0659287 C79.339854,19.1963877 80,20.7529967 80,22.3792652 L80,22.8099174 L64.4102564,22.8099174 C59.9919784,22.8099174 56.4102564,19.2281954 56.4102564,14.8099174 L56.4102564,-4.61852778e-14 Z" id="paper-folded-down" fill="#D7DADF" fill-rule="evenodd"></path>
        </g>
        <g id="file" transform="translate(30.000000, 6.000000)">
            <g id="paper">
                <use fill="black" fill-opacity="1" filter="url(#filter-12)" xlink:href="#path-11"></use>
                <use fill="#F4F4F7" fill-rule="evenodd" xlink:href="#path-11"></use>
            </g>
            <path d="M56.4102564,-4.64163767e-14 L57.06076,-4.61852778e-14 C58.6171478,-4.50888316e-14 60.1126361,0.604780332 61.2315068,1.68666357 L78.1707468,18.0659287 C79.339854,19.1963877 80,20.7529967 80,22.3792652 L80,22.8099174 L64.4102564,22.8099174 C59.9919784,22.8099174 56.4102564,19.2281954 56.4102564,14.8099174 L56.4102564,-4.61852778e-14 Z" id="paper-folded-down" fill="#D7DADF" fill-rule="evenodd"></path>
        </g>
        <rect id="js-stripe" fill="#F3CD39" x="40" y="69" width="60" height="10"></rect>
        <path d="M55.5898491,69.2571573 C54.0242341,69.2571573 53,68.2232676 53,66.7928174 C53,65.3623672 54.0242341,64.3426404 55.5898491,64.3426404 C57.170096,64.3426404 58.1796982,65.3623672 58.1796982,66.7928174 C58.1796982,68.2232676 57.170096,69.2571573 55.5898491,69.2571573 Z M67.2222222,53.2531108 L67.2222222,69.3562974 C67.2222222,72.5571067 65.2469136,74.2 61.515775,74.2 C61.2085048,74.2 60.5500686,74.1716743 60.3744856,74.1433485 L60.3744856,70.9850278 C60.4622771,70.9991907 60.7841792,70.9991907 60.9158665,70.9991907 C62.4083219,70.9991907 62.9643347,70.4893273 62.9643347,69.2429944 L62.9643347,53.2531108 L67.2222222,53.2531108 Z M65.1152263,50.9162367 C63.7983539,50.9162367 62.7009602,49.8681841 62.7009602,48.5510369 C62.7009602,47.2338897 63.7983539,46.2 65.1152263,46.2 C66.4467307,46.2 67.5294925,47.2338897 67.5294925,48.5510369 C67.5294925,49.8681841 66.4467307,50.9162367 65.1152263,50.9162367 Z M71.1582076,57.8418816 C71.1582076,54.8818412 73.8504801,52.9132018 77.874257,52.9132018 C81.9711934,52.9132018 84.3854595,54.570258 84.6195702,57.5586242 L80.6835848,57.5586242 C80.4641061,56.5530602 79.4837677,55.9298938 77.9035208,55.9298938 C76.3818016,55.9298938 75.255144,56.5955488 75.255144,57.5869499 C75.255144,58.3517451 75.9428441,58.8191199 77.4352995,59.144866 L80.4641061,59.7821952 C83.5953361,60.4478503 85,61.7225089 85,64.0593829 C85,67.175215 82.1175126,69.2146687 77.8888889,69.2146687 C73.6310014,69.2146687 71.0557842,67.5292868 70.7631459,64.5267577 L74.91861,64.5267577 C75.2405121,65.5889732 76.2793781,66.1979767 77.9766804,66.1979767 C79.6300869,66.1979767 80.7713763,65.5323217 80.7713763,64.5267577 C80.7713763,63.7619626 80.1568358,63.2945878 78.73754,62.9971674 L75.8111568,62.3598381 C72.6799268,61.6941831 71.1582076,60.2495701 71.1582076,57.8418816 Z" id="js-text" fill="#232324"></path>
    </g>
</svg>